HIERARCHY
ROOT Hips
{
	OFFSET -0.001795 -0.223333 0.028219
	CHANNELS 6 Xposition Yposition Zposition Zrotation Yrotation Xrotation 
	JOINT LeftUpLeg
	{
		OFFSET 0.069520 -0.091406 -0.006815
		CHANNELS 3 Zrotation Yrotation Xrotation
		JOINT LeftLeg
		{
			OFFSET 0.034277 -0.375199 -0.004496
			CHANNELS 3 Zrotation Yrotation Xrotation
			JOINT LeftFoot
			{
				OFFSET -0.013596 -0.397961 -0.043693
				CHANNELS 3 Zrotation Yrotation Xrotation
				JOINT LeftToe
				{
					OFFSET 0.026358 -0.055791 0.119288
					CHANNELS 3 Zrotation Yrotation Xrotation
					End Site
					{
						OFFSET 0.000000 0.000000 0.000000
					}
				}
			}
		}
	}
	JOINT RightUpLeg
	{
		OFFSET -0.067670 -0.090522 -0.004320
		CHANNELS 3 Zrotation Yrotation Xrotation
		JOINT RightLeg
		{
			OFFSET -0.038290 -0.382569 -0.008850
			CHANNELS 3 Zrotation Yrotation Xrotation
			JOINT RightFoot
			{
				OFFSET 0.015774 -0.398415 -0.042312
				CHANNELS 3 Zrotation Yrotation Xrotation
				JOINT RightToe
				{
					OFFSET -0.025372 -0.048144 0.123348
					CHANNELS 3 Zrotation Yrotation Xrotation
					End Site
					{
						OFFSET 0.000000 0.000000 0.000000
					}
				}
			}
		}
	}
	JOINT Spine
	{
		OFFSET -0.002533 0.108963 -0.026696
		CHANNELS 3 Zrotation Yrotation Xrotation
		JOINT Spine1
		{
			OFFSET 0.005487 0.135180 0.001092
			CHANNELS 3 Zrotation Yrotation Xrotation
			JOINT Spine2
			{
				OFFSET 0.001457 0.052922 0.025425
				CHANNELS 3 Zrotation Yrotation Xrotation
				JOINT Neck
				{
					OFFSET -0.002778 0.213870 -0.042857
					CHANNELS 3 Zrotation Yrotation Xrotation
					JOINT Head
					{
						OFFSET 0.005152 0.064970 0.051349
						CHANNELS 3 Zrotation Yrotation Xrotation
						End Site
						{
							OFFSET 0.000000 0.000000 0.000000
						}
					}
				}
				JOINT LeftShoulder
				{
					OFFSET 0.078845 0.121749 -0.034090
					CHANNELS 3 Zrotation Yrotation Xrotation
					JOINT LeftArm
					{
						OFFSET 0.090977 0.030469 -0.008868
						CHANNELS 3 Zrotation Yrotation Xrotation
						JOINT LeftForeArm
						{
							OFFSET 0.259612 -0.012772 -0.027456
							CHANNELS 3 Zrotation Yrotation Xrotation
							JOINT LeftHand
							{
								OFFSET 0.249234 0.008986 -0.001171
								CHANNELS 3 Zrotation Yrotation Xrotation
								End Site
								{
									OFFSET 0.000000 0.000000 0.000000
								}
							}
						}
					}
				}
				JOINT RightShoulder
				{
					OFFSET -0.081759 0.118833 -0.038615
					CHANNELS 3 Zrotation Yrotation Xrotation
					JOINT RightArm
					{
						OFFSET -0.096012 0.032551 -0.009143
						CHANNELS 3 Zrotation Yrotation Xrotation
						JOINT RightForeArm
						{
							OFFSET -0.253742 -0.013329 -0.021401
							CHANNELS 3 Zrotation Yrotation Xrotation
							JOINT RightHand
							{
								OFFSET -0.255298 0.007772 -0.005559
								CHANNELS 3 Zrotation Yrotation Xrotation
								End Site
								{
									OFFSET 0.000000 0.000000 0.000000
								}
							}
						}
					}
				}
			}
		}
	}
}
MOTION
Frames: 15
Frame Time: 0.050000
0.043807 0.947918 0.072063 0.639210 10.267848 4.941527 2.178392 -0.724518 -8.683923 0.796191 -0.478343 7.701528 0.955839 4.013290 3.863443 0.000000 0.000000 0.000000 -4.541279 0.550687 -8.629191 -4.725725 0.836674 3.797551 0.448220 -2.420420 11.372005 0.000000 0.000000 0.000000 6.940950 -0.209536 -0.080024 -0.916794 0.460151 -0.904468 -5.405936 12.184704 11.489363 18.784867 -12.454988 -8.495415 0.000000 0.000000 0.000000 -6.560154 -12.842994 2.499367 -32.217172 -10.419271 -0.863057 -31.722025 -45.430444 11.656665 0.000000 0.000000 0.000000 1.126150 7.537212 3.332097 25.174756 20.914479 0.746405 1.775282 49.245455 5.388776 0.000000 0.000000 0.000000 
0.043586 0.947833 0.071930 0.479932 10.336922 4.859811 2.284767 -0.745488 -8.979069 0.558456 -0.484877 8.423077 1.326801 4.557664 3.519106 0.000000 0.000000 0.000000 -4.293477 0.565545 -8.618154 -4.638838 0.846431 4.125749 0.683319 -1.821208 10.922797 0.000000 0.000000 0.000000 6.929361 -0.207637 -0.079790 -0.397168 0.206427 -0.640447 -5.542878 11.509979 11.439615 18.844241 -12.579056 -8.398712 0.000000 0.000000 0.000000 -6.478274 -13.466111 2.834900 -30.902824 -12.844633 -0.335662 -28.044741 -47.867269 10.951077 0.000000 0.000000 0.000000 1.642810 7.359427 3.335007 25.666740 20.476273 0.667271 1.691827 50.428407 5.497162 0.000000 0.000000 0.000000 
0.043186 0.947981 0.071624 0.449419 10.174838 4.793053 2.254708 -0.753909 -9.079667 0.623596 -0.520254 8.839906 1.497045 5.065474 3.930972 0.000000 0.000000 0.000000 -4.144915 0.584025 -8.756101 -4.579314 0.842713 4.207542 0.825432 -1.545451 10.873907 0.000000 0.000000 0.000000 7.075565 -0.220995 0.022547 -0.022623 0.015942 -0.360187 -5.749938 10.891845 11.227162 18.642044 -12.541681 -8.145666 0.000000 0.000000 0.000000 -6.135174 -14.130506 3.226249 -29.770158 -15.457941 0.163390 -22.802907 -49.933051 9.258163 0.000000 0.000000 0.000000 1.800606 7.412807 3.358805 27.468903 20.065220 0.747823 0.015320 52.485191 5.041957 0.000000 0.000000 0.000000 
0.042801 0.947921 0.071052 0.355380 9.932852 4.754586 2.448482 -0.767031 -9.339077 0.396084 -0.515962 9.442944 1.931828 5.629188 3.372907 0.000000 0.000000 0.000000 -3.998767 0.608387 -8.967210 -4.493925 0.831115 4.235575 1.078285 -1.015898 10.683549 0.000000 0.000000 0.000000 7.030921 -0.217245 0.013085 0.443465 -0.239379 0.209777 -5.685723 10.315354 10.980267 18.286624 -12.358592 -7.932105 0.000000 0.000000 0.000000 -5.805875 -14.644268 3.556930 -28.458698 -18.023851 0.582001 -15.792790 -52.297426 6.538533 0.000000 0.000000 0.000000 2.377969 7.467473 3.456132 28.576524 20.537453 0.947371 -2.203668 53.332312 4.008840 0.000000 0.000000 0.000000 
0.042607 0.947901 0.069883 0.230437 9.414936 4.624091 2.504921 -0.756641 -9.277632 0.342145 -0.516021 9.696560 2.156293 6.053126 3.407115 0.000000 0.000000 0.000000 -3.979425 0.619923 -9.052136 -4.338800 0.815538 4.369103 1.319787 -0.543955 10.497369 0.000000 0.000000 0.000000 7.169481 -0.244323 0.279566 0.767240 -0.407271 0.436211 -5.622627 10.099513 10.802087 18.156210 -12.556831 -7.251097 0.000000 0.000000 0.000000 -4.822480 -15.544934 4.076454 -27.257876 -20.123734 0.839765 -8.017786 -53.517137 2.935977 0.000000 0.000000 0.000000 2.980386 7.777069 3.675976 29.912810 21.050865 1.175740 -5.645265 54.291415 2.403177 0.000000 0.000000 0.000000 
0.042808 0.948130 0.067932 0.214027 8.923343 4.833900 2.501140 -0.780364 -9.591107 0.167706 -0.500895 10.074149 2.602625 6.845033 3.306068 0.000000 0.000000 0.000000 -3.972817 0.654016 -9.521434 -4.266253 0.811603 4.499305 1.643304 0.031461 10.535171 0.000000 0.000000 0.000000 7.126748 -0.233249 0.154059 1.085305 -0.574521 0.665649 -5.312010 9.761008 10.931504 17.750585 -11.978900 -7.863920 0.000000 0.000000 0.000000 -3.755643 -15.905824 4.401258 -25.901583 -21.673372 0.925287 -2.063563 -55.019853 0.045115 0.000000 0.000000 0.000000 3.214753 8.410793 3.947692 30.909365 21.963384 1.517725 -9.399159 54.626220 0.477628 0.000000 0.000000 0.000000 
0.043475 0.948413 0.065177 0.221761 8.463644 4.834542 2.428004 -0.796184 -9.781148 -0.055757 -0.464301 10.256896 2.964210 7.536842 3.356918 0.000000 0.000000 0.000000 -4.182998 0.653528 -9.682004 -4.109492 0.788259 4.521346 1.882305 0.438406 10.568830 0.000000 0.000000 0.000000 7.150284 -0.245473 0.284251 1.372654 -0.747892 1.167584 -4.955034 9.722209 10.796701 17.479502 -11.577611 -8.300648 0.000000 0.000000 0.000000 -1.953121 -16.538211 4.834463 -25.064522 -22.971450 0.972457 3.507851 -55.505506 -2.878618 0.000000 0.000000 0.000000 3.240382 9.448556 4.368561 31.789108 22.550609 1.804367 -13.413889 53.999555 -1.562641 0.000000 0.000000 0.000000 
0.044501 0.949006 0.061929 0.373550 7.999107 4.962842 2.085073 -0.831863 -10.050642 -0.231523 -0.430764 10.354662 3.311397 8.225672 3.479932 0.000000 0.000000 0.000000 -4.602440 0.643300 -9.927893 -3.907971 0.739042 4.248567 2.450655 1.372675 10.966702 0.000000 0.000000 0.000000 7.038569 -0.272575 0.582551 1.726071 -0.909917 1.064918 -4.492251 9.602151 11.159871 17.289859 -11.308166 -8.668524 0.000000 0.000000 0.000000 -0.910207 -17.241081 5.191978 -23.577764 -23.441472 0.839857 6.900671 -56.349323 -4.690521 0.000000 0.000000 0.000000 2.806113 10.487523 4.690117 32.445117 23.529964 2.179623 -16.283187 52.968407 -2.981197 0.000000 0.000000 0.000000 
0.045714 0.949623 0.058733 0.509161 7.583109 5.282394 1.896116 -0.884879 -10.578010 -0.434790 -0.390338 10.424632 3.505019 8.672300 3.734351 0.000000 0.000000 0.000000 -4.952415 0.646748 -10.338017 -3.711043 0.700516 4.128230 2.643640 1.637896 11.135272 0.000000 0.000000 0.000000 6.991467 -0.283712 0.652077 1.845781 -1.010737 1.652560 -4.166830 9.724354 10.637988 17.172939 -10.979798 -9.194379 0.000000 0.000000 0.000000 0.149834 -17.671203 5.418713 -22.435005 -23.697689 0.754043 8.371653 -57.426307 -5.629790 0.000000 0.000000 0.000000 2.566031 11.360289 4.996194 32.576165 24.050253 2.414033 -17.340563 51.295358 -3.471939 0.000000 0.000000 0.000000 
0.046873 0.950216 0.056000 0.852005 7.690756 5.335823 1.407845 -0.919904 -10.670299 -0.495814 -0.379395 10.392025 3.546367 8.781467 3.816940 0.000000 0.000000 0.000000 -5.486870 0.596258 -10.148677 -3.685113 0.679372 3.851995 2.962775 2.228176 11.291412 0.000000 0.000000 0.000000 6.665630 -0.285448 0.799097 2.193778 -1.192302 1.758566 -4.015056 9.594344 10.828866 17.178199 -11.008934 -9.172317 0.000000 0.000000 0.000000 0.923072 -18.490933 5.730318 -20.617122 -23.662148 0.551072 8.498099 -58.847468 -5.885981 0.000000 0.000000 0.000000 2.484764 12.098298 5.277377 32.474599 24.089633 2.414489 -17.216196 49.681714 -3.402567 0.000000 0.000000 0.000000 
0.047875 0.950858 0.053773 1.002044 7.427249 5.308766 1.095348 -0.935259 -10.665880 -0.542591 -0.369643 10.451784 3.551965 8.754124 3.727305 0.000000 0.000000 0.000000 -5.653045 0.589603 -10.188261 -3.727974 0.686118 3.866616 3.120304 2.523601 11.241761 0.000000 0.000000 0.000000 6.438144 -0.284115 0.903845 2.287466 -1.267880 2.142416 -3.663980 9.576358 10.844127 17.131998 -10.608395 -10.154227 0.000000 0.000000 0.000000 2.388771 -18.595942 5.852768 -19.464187 -23.805962 0.402394 6.125464 -60.919237 -4.789651 0.000000 0.000000 0.000000 2.108774 12.401056 5.301793 32.128884 23.796685 2.319434 -15.666364 48.557614 -2.772685 0.000000 0.000000 0.000000 
0.048664 0.951144 0.052027 1.288899 7.106945 5.400169 0.829563 -0.925406 -10.415914 -0.651535 -0.321209 9.952329 3.524534 8.779647 3.986891 0.000000 0.000000 0.000000 -6.066348 0.556084 -9.927090 -3.798977 0.665064 3.395062 3.668424 3.470058 11.484164 0.000000 0.000000 0.000000 6.115564 -0.274395 0.941449 2.451263 -1.356860 2.272352 -3.596824 9.135466 11.138379 16.887239 -10.165843 -10.983420 0.000000 0.000000 0.000000 3.838629 -18.801851 5.987014 -17.995660 -23.503915 0.187527 3.898853 -62.950864 -3.566937 0.000000 0.000000 0.000000 1.321634 12.711079 5.222624 32.329964 23.515716 2.298986 -13.834831 47.772775 -2.084700 0.000000 0.000000 0.000000 
0.049253 0.951520 0.050599 1.235451 6.509033 5.285665 0.825147 -0.900179 -10.167965 -0.581104 -0.318216 9.793843 3.540257 8.751103 3.873087 0.000000 0.000000 0.000000 -5.928735 0.579077 -10.006364 -3.722652 0.665289 3.587795 3.927174 3.812535 11.675446 0.000000 0.000000 0.000000 5.951916 -0.287985 1.204502 2.505007 -1.393402 2.466354 -3.323058 8.535534 11.299243 16.456232 -9.836436 -11.196489 0.000000 0.000000 0.000000 4.952899 -18.806913 6.024221 -16.856959 -23.247608 0.033210 -0.341299 -65.918131 -0.868786 0.000000 0.000000 0.000000 0.663723 12.912960 5.113711 32.133270 23.136427 2.177531 -10.730323 47.435232 -0.949379 0.000000 0.000000 0.000000 
0.049807 0.951921 0.049603 1.352341 5.564427 5.343269 0.718808 -0.888453 -10.011943 -0.718239 -0.269357 9.547113 3.825806 9.312488 4.061367 0.000000 0.000000 0.000000 -6.069500 0.598891 -10.297719 -3.857350 0.679160 3.546101 4.399289 4.469937 11.983667 0.000000 0.000000 0.000000 5.872787 -0.306088 1.455100 2.513802 -1.397076 2.593060 -3.630734 8.103180 11.500875 16.090425 -9.853268 -10.553826 0.000000 0.000000 0.000000 6.213398 -19.235949 6.146815 -16.287835 -23.148327 -0.057368 -5.358833 -68.881028 2.684569 0.000000 0.000000 0.000000 0.118821 12.971434 4.989309 32.689413 22.537187 2.079915 -7.534586 47.389016 0.262837 0.000000 0.000000 0.000000 
0.050330 0.952217 0.048831 1.453087 4.546026 5.244695 0.556719 -0.861290 -9.657028 -0.711770 -0.252651 9.460308 4.085997 9.813021 4.241390 0.000000 0.000000 0.000000 -5.969977 0.636795 -10.626608 -4.143501 0.741107 3.886882 4.984085 5.466989 12.002443 0.000000 0.000000 0.000000 5.820813 -0.333485 1.827366 2.416191 -1.374133 3.126736 -3.914978 7.552292 11.611763 15.915968 -9.828122 -10.475304 0.000000 0.000000 0.000000 7.900399 -19.531407 6.185880 -16.855914 -23.627722 -0.015565 -7.988145 -71.661266 4.995654 0.000000 0.000000 0.000000 -0.680935 12.727679 4.709296 34.190785 21.654316 2.042901 -4.120858 48.652799 1.656301 0.000000 0.000000 0.000000 
